# xmcd
#
# Track frame offsets: 
#        150
#        15835
#        34459
#        56523
#        74488
#        94377
#        112556
#        127379
#        143121
#        164969
#        184425
#        199285
#        213841
#        239827
#        264318
#        283108
#        298391
#
# Disc length: 4761 seconds
#
# Revision: 0
# Processed by: cddbd v1.5.2PL0 Copyright (c) Steve Scherf et al.
# Submitted via: ExactAudioCopy v1.3
#
DISCID=1c129711
DTITLE=The Black Sorrows - 4 Days In Sing Sing
DYEAR=2009
DGENRE=Blues Rock
TTITLE0=The Best Thing
TTITLE1=What Levi Wants
TTITLE2=Lonesome Road
TTITLE3=Lean On Me
TTITLE4=Don't Judge Me Too Hard
TTITLE5=Lay By My Side
TTITLE6=Comfort Me
TTITLE7=Every Natural Thing
TTITLE8=Midnight Rain
TTITLE9=The Raven
TTITLE10=Sometimes I Wish
TTITLE11=Where's It All Gonna End
TTITLE12=Better Times
TTITLE13=Such A Night
TTITLE14=Little Murders
TTITLE15=Viva La Money
TTITLE16=Sumo
EXTD=
EXTT0=
EXTT1=
EXTT2=
EXTT3=
EXTT4=
EXTT5=
EXTT6=
EXTT7=
EXTT8=
EXTT9=
EXTT10=
EXTT11=
EXTT12=
EXTT13=
EXTT14=
EXTT15=
EXTT16=
PLAYORDER=
